<svg xmlns="http://www.w3.org/2000/svg" xmlns:xlink="http://www.w3.org/1999/xlink" viewBox="0,0,256,256" width="48px" height="48px" fill-rule="nonzero"><g fill="none" fill-rule="nonzero" stroke="none" strokeWidth="1" strokeLinecap="butt" strokeLinejoin="miter" strokeMiterlimit="10" strokeDasharray="" strokeDashoffset="0" fontFamily="none" font-weight="none" font-size="none" text-anchor="none" style="mix-blend-mode: normal"><g transform="scale(5.33333,5.33333)"><path d="M9.171,29.039c-1.29,0 -2.225,-1.094 -3.066,-2.066c-1.399,-1.617 -2.436,-4.143 -2.575,-7.255c-0.13,-2.923 0.723,-5.831 2.246,-8.334c1.523,-2.503 3.561,-4.651 5.591,-6.771c0.731,2.028 1.231,3.641 2.302,5.515c0.462,0.808 1.749,3.276 2.481,5.455c0.933,2.777 0.974,5.528 -0.265,8.57c-0.709,1.736 -3.171,4.886 -6.714,4.886z" fill="#d3896d"></path><path d="M15.108,34.761c0.409,1.765 1.697,3.232 3.175,4.281c1.478,1.049 3.207,1.692 4.964,2.136c3.719,0.939 7.135,0.695 10.491,-1.162c3.248,-1.798 4.54,-3.238 7.076,-6.491c1.308,-1.678 2.872,-3.423 4.287,-4.092c-2.508,-2.61 -5.264,-4.553 -8.183,-6.186c-2.33,-1.304 -4.849,-2.389 -8.084,-2.74c-3.745,-0.406 -7.699,1.161 -10.421,3.766c-2.722,2.605 -4.155,6.818 -3.305,10.488z" fill="#9fa26e"></path><path d="M17.037,16.907c-0.461,-2.097 -1.408,-4.107 -2.386,-6.007c-0.461,-0.895 -0.977,-1.758 -1.39,-2.677c-0.546,-1.217 -0.962,-2.488 -1.412,-3.742c-0.122,-0.34 -0.559,-0.51 -0.836,-0.221c-2.951,3.083 -5.996,6.316 -7.307,10.477c-1.166,3.701 -0.912,8.108 1.193,11.441c0.933,1.476 2.39,3.286 4.272,3.362c0.004,0 0.006,-0.002 0.009,-0.002c3.476,-0.059 6.34,-2.775 7.444,-5.933c0.755,-2.159 0.904,-4.464 0.413,-6.698zM14.118,26.009c-1.269,1.457 -2.978,2.499 -4.947,2.53c-1.481,-0.06 -2.736,-1.782 -3.453,-2.939c-0.909,-1.468 -1.417,-3.17 -1.61,-4.879c-0.441,-3.893 0.892,-7.556 3.165,-10.674c1.171,-1.606 2.528,-3.066 3.899,-4.504c0.6,1.668 1.215,3.318 2.087,4.875c0.846,1.511 1.603,3.091 2.203,4.715c1.311,3.547 1.248,7.895 -1.344,10.876z" fill="#1b1b1b"></path><path d="M45.454,29.079c-2.149,-2.221 -4.611,-4.101 -7.266,-5.678c-2.453,-1.457 -5.052,-2.674 -7.877,-3.184c-2.81,-0.507 -5.55,-0.213 -8.164,0.954c-2.452,1.094 -4.634,2.878 -6.023,5.191c-1.524,2.539 -2.14,5.627 -1.498,8.532c1.287,5.13 7.84,7.273 12.531,7.318c4.743,0.045 9.147,-2.549 12.179,-6.068c0.925,-1.074 1.759,-2.222 2.673,-3.306c0.952,-1.129 2.003,-2.307 3.344,-2.974c0.295,-0.147 0.312,-0.567 0.101,-0.785zM39.745,34.079c-1.211,1.522 -2.487,3.002 -4.076,4.143c-1.952,1.402 -4.156,2.507 -6.551,2.863c-2.553,0.38 -5.207,-0.087 -7.616,-0.955c-2.561,-0.923 -5.211,-2.711 -5.912,-5.498c0,-0.002 0,-0.003 0,-0.004c-0.536,-2.425 -0.077,-4.998 1.072,-7.183c1.198,-2.277 3.151,-4.01 5.441,-5.152c2.411,-1.203 5.069,-1.598 7.723,-1.15c2.614,0.441 5.017,1.484 7.303,2.798c2.604,1.496 5.01,3.282 7.143,5.393c-1.852,1.146 -3.202,3.08 -4.527,4.745z" fill="#1b1b1b"></path><path d="M35.176,29.371c-4.622,-0.992 -9.219,-0.3 -13.482,1.671c-3.61,1.67 -7.017,3.938 -9.709,6.887c-0.693,0.759 -1.328,1.568 -1.909,2.412c0.165,-0.658 0.32,-1.319 0.424,-1.99c0.27,-1.745 0.26,-3.556 0.269,-5.32c0.017,-3.505 -0.875,-6.921 -1.048,-10.416c-0.112,-2.274 0.054,-4.531 0.575,-6.749c0.146,-0.626 -0.818,-0.893 -0.965,-0.265c-0.896,3.819 -0.69,7.653 -0.143,11.506c0.238,1.674 0.532,3.328 0.572,5.021c0.041,1.692 0.016,3.427 -0.125,5.113c-0.182,2.169 -0.971,4.231 -1.397,6.356c-0.104,0.517 0.665,0.934 0.914,0.385c1.561,-3.445 4.105,-6.329 7.122,-8.581c3.177,-2.372 6.944,-4.378 10.856,-5.15c2.567,-0.507 5.224,-0.465 7.78,0.084c0.628,0.135 0.896,-0.829 0.266,-0.964z" fill="#1b1b1b"></path></g></g></svg>